<svg width="456" height="456" viewBox="0 0 456 456" fill="none" xmlns="http://www.w3.org/2000/svg">
  <defs>
    <linearGradient id="grad1" x1="0%" y1="0%" x2="100%" y2="100%">
      <stop offset="0%" style="stop-color:#6366F1;stop-opacity:1" />
      <stop offset="100%" style="stop-color:#8B5CF6;stop-opacity:1" />
    </linearGradient>
  </defs>
  
  <!-- 背景 -->
  <rect width="456" height="456" fill="url(#grad1)"/>
  
  <!-- 中心圆形 -->
  <circle cx="228" cy="228" r="120" fill="white" opacity="0.1"/>
  
  <!-- AI图标 -->
  <g transform="translate(168, 168)">
    <!-- 大脑轮廓 -->
    <path d="M60 40 C75 30, 85 30, 100 40 C115 50, 115 60, 100 70 C85 80, 75 80, 60 70 C45 60, 45 50, 60 40 Z" 
          fill="white" opacity="0.9"/>
    
    <!-- 节点 -->
    <circle cx="50" cy="50" r="4" fill="white" opacity="0.8"/>
    <circle cx="70" cy="50" r="4" fill="white" opacity="0.8"/>
    <circle cx="90" cy="50" r="4" fill="white" opacity="0.8"/>
    <circle cx="50" cy="70" r="4" fill="white" opacity="0.8"/>
    <circle cx="70" cy="70" r="4" fill="white" opacity="0.8"/>
    <circle cx="90" cy="70" r="4" fill="white" opacity="0.8"/>
    <circle cx="60" cy="60" r="5" fill="white" opacity="0.9"/>
    <circle cx="80" cy="60" r="5" fill="white" opacity="0.9"/>
  </g>
  
  <!-- 文字 -->
  <text x="228" y="380" text-anchor="middle" fill="white" font-family="Arial, sans-serif" font-size="24" font-weight="bold">
    炘灏AI
  </text>
</svg>