<svg width="456" height="456" viewBox="0 0 456 456" fill="none" xmlns="http://www.w3.org/2000/svg">
  <defs>
    <linearGradient id="grad1" x1="0%" y1="0%" x2="100%" y2="100%">
      <stop offset="0%" style="stop-color:#6366F1;stop-opacity:1" />
      <stop offset="100%" style="stop-color:#8B5CF6;stop-opacity:1" />
    </linearGradient>
    <linearGradient id="grad2" x1="0%" y1="0%" x2="100%" y2="100%">
      <stop offset="0%" style="stop-color:#06B6D4;stop-opacity:1" />
      <stop offset="100%" style="stop-color:#10B981;stop-opacity:1" />
    </linearGradient>
  </defs>
  
  <!-- 背景圆形 -->
  <circle cx="228" cy="228" r="228" fill="url(#grad1)"/>
  
  <!-- 内圆 -->
  <circle cx="228" cy="228" r="180" fill="white" opacity="0.1"/>
  
  <!-- AI大脑图标 -->
  <g transform="translate(128, 128)">
    <!-- 大脑轮廓 -->
    <path d="M100 60 C120 40, 140 40, 160 60 C180 80, 180 100, 160 120 C140 140, 120 140, 100 120 C80 100, 80 80, 100 60 Z" 
          fill="url(#grad2)" opacity="0.9"/>
    
    <!-- 神经网络节点 -->
    <circle cx="80" cy="80" r="6" fill="white" opacity="0.8"/>
    <circle cx="120" cy="80" r="6" fill="white" opacity="0.8"/>
    <circle cx="160" cy="80" r="6" fill="white" opacity="0.8"/>
    <circle cx="80" cy="120" r="6" fill="white" opacity="0.8"/>
    <circle cx="120" cy="120" r="6" fill="white" opacity="0.8"/>
    <circle cx="160" cy="120" r="6" fill="white" opacity="0.8"/>
    <circle cx="100" cy="100" r="8" fill="white" opacity="0.9"/>
    <circle cx="140" cy="100" r="8" fill="white" opacity="0.9"/>
    
    <!-- 连接线 -->
    <line x1="80" y1="80" x2="100" y2="100" stroke="white" stroke-width="2" opacity="0.6"/>
    <line x1="120" y1="80" x2="100" y2="100" stroke="white" stroke-width="2" opacity="0.6"/>
    <line x1="160" y1="80" x2="140" y2="100" stroke="white" stroke-width="2" opacity="0.6"/>
    <line x1="80" y1="120" x2="100" y2="100" stroke="white" stroke-width="2" opacity="0.6"/>
    <line x1="120" y1="120" x2="100" y2="100" stroke="white" stroke-width="2" opacity="0.6"/>
    <line x1="160" y1="120" x2="140" y2="100" stroke="white" stroke-width="2" opacity="0.6"/>
    <line x1="100" y1="100" x2="140" y2="100" stroke="white" stroke-width="2" opacity="0.6"/>
  </g>
  
  <!-- 装饰性光环 -->
  <circle cx="228" cy="228" r="200" fill="none" stroke="white" stroke-width="2" opacity="0.3"/>
  <circle cx="228" cy="228" r="220" fill="none" stroke="white" stroke-width="1" opacity="0.2"/>
</svg>